<svg width="107" height="100" viewBox="0 0 107 100" fill="none" xmlns="http://www.w3.org/2000/svg">
<g id="Illustration">
<circle id="Ellipse 173" cx="52.8834" cy="57.4073" r="41.358" fill="#00BBF1"/>
<circle id="Ellipse 174" cx="102.575" cy="20.0617" r="4.01234" fill="#00BBF1"/>
<ellipse id="Ellipse 176" cx="6.89553" cy="6.17283" rx="6.48147" ry="6.17283" fill="#00BBF1"/>
<ellipse id="Ellipse 175" cx="3.50048" cy="84.2593" rx="3.08642" ry="3.39506" fill="#00BBF1"/>
<ellipse id="Ellipse 177" cx="95.1672" cy="98.7653" rx="1.54321" ry="1.23457" fill="#00BBF1"/>
<path id="Vector" d="M49.8104 68.5913C48.9333 68.5913 48.0563 68.2154 47.5551 67.4637L40.5384 58.4422C39.536 57.1893 39.7867 55.4351 41.0396 54.4327C42.2926 53.4303 44.0467 53.681 45.0491 54.9339L49.8104 61.0735L60.3354 47.4161C61.3378 46.1631 63.092 45.9125 64.3449 46.9149C65.5979 47.9173 65.8485 49.6715 64.8461 50.9244L52.0658 67.4637C51.4393 68.0901 50.6875 68.5913 49.8104 68.5913Z" fill="white"/>
<circle id="Ellipse 202" cx="70.4758" cy="63.8889" r="1.54321" fill="white"/>
<circle id="Ellipse 203" cx="30.0434" cy="46.9135" r="2.46913" fill="white"/>
<circle id="Ellipse 206" cx="66.1544" cy="33.6417" r="0.925925" fill="white"/>
<circle id="Ellipse 204" cx="40.5373" cy="77.1603" r="1.23457" fill="white"/>
<circle id="Ellipse 205" cx="54.1173" cy="47.5309" r="0.617283" fill="white"/>
</g>
</svg>
