<svg width="282" height="181" viewBox="0 0 282 181" fill="none" xmlns="http://www.w3.org/2000/svg">
<path fill-rule="evenodd" clip-rule="evenodd" d="M108.457 4.23821L186.186 30.993C191.143 32.7001 193.804 38.1509 192.097 43.1088L173.568 96.94C171.862 101.898 166.41 104.557 161.453 102.851L83.7249 76.0966C78.767 74.3895 76.1077 68.9386 77.8136 63.9807L86.0067 40.1771C85.6577 45.6552 88.985 50.9452 94.4112 52.8132L105.522 56.6373C112.025 58.875 119.176 55.3868 121.414 48.8839C123.651 42.3811 120.163 35.2296 113.66 32.9919L102.55 29.1678C96.0146 26.9184 91.8804 23.7286 93.9494 17.0974L96.3415 10.1495C98.0473 5.19164 103.499 2.53239 108.457 4.23821Z" fill="#3FC3C8"/>
<path fill-rule="evenodd" clip-rule="evenodd" d="M192.097 43.1075L174.59 93.972L174.855 94.0628C181.529 96.3602 188.868 92.7786 191.166 86.1045L202.86 52.1295C207.606 38.3377 200.206 23.1682 186.414 18.4218L134.912 0.695543C128.516 -1.50581 121.507 1.6918 118.914 7.83664L186.187 30.9917C191.145 32.6988 193.805 38.1496 192.098 43.1075" fill="#00BBF1"/>
<path fill-rule="evenodd" clip-rule="evenodd" d="M110.718 39.8437C113.363 40.7544 114.771 43.638 113.86 46.283C112.95 48.928 110.066 50.3355 107.421 49.4249C104.775 48.5142 103.368 45.6305 104.279 42.9856C105.19 40.3393 108.072 38.9331 110.718 39.8437Z" fill="#92A7AD"/>
<path d="M106.238 147.368L98.1669 136.766V147.368H92.3187V123.359H98.1669V133.893L106.17 123.359H113.044L103.742 135.124L113.386 147.368H106.238ZM124.852 147.642C122.982 147.642 121.295 147.243 119.79 146.445C118.308 145.647 117.134 144.507 116.268 143.025C115.424 141.543 115.002 139.81 115.002 137.826C115.002 135.865 115.436 134.144 116.302 132.662C117.168 131.157 118.354 130.006 119.859 129.208C121.364 128.41 123.051 128.011 124.92 128.011C126.79 128.011 128.477 128.41 129.982 129.208C131.487 130.006 132.672 131.157 133.539 132.662C134.405 134.144 134.838 135.865 134.838 137.826C134.838 139.787 134.394 141.52 133.505 143.025C132.638 144.507 131.441 145.647 129.914 146.445C128.409 147.243 126.722 147.642 124.852 147.642ZM124.852 142.58C125.969 142.58 126.915 142.17 127.691 141.349C128.489 140.528 128.888 139.354 128.888 137.826C128.888 136.299 128.5 135.124 127.725 134.304C126.972 133.483 126.038 133.072 124.92 133.072C123.78 133.072 122.834 133.483 122.082 134.304C121.329 135.102 120.953 136.276 120.953 137.826C120.953 139.354 121.318 140.528 122.048 141.349C122.8 142.17 123.735 142.58 124.852 142.58Z" fill="#3FC3C8"/>
<path d="M159.419 147.368H153.57L143.789 132.559V147.368H137.941V123.359H143.789L153.57 138.237V123.359H159.419V147.368ZM180.929 123.359V128.045H174.568V147.368H168.719V128.045H162.358V123.359H180.929ZM186.6 147.642C185.574 147.642 184.73 147.345 184.069 146.752C183.431 146.137 183.112 145.384 183.112 144.495C183.112 143.583 183.431 142.819 184.069 142.204C184.73 141.588 185.574 141.28 186.6 141.28C187.603 141.28 188.424 141.588 189.062 142.204C189.724 142.819 190.054 143.583 190.054 144.495C190.054 145.384 189.724 146.137 189.062 146.752C188.424 147.345 187.603 147.642 186.6 147.642Z" fill="#00BBF1"/>
<path d="M50.6802 175L46.8544 170.577V175H45.2331V165.116H46.8544V169.624L50.6944 165.116H52.7282L48.4331 170.065L52.7993 175H50.6802ZM57.6322 175.128C56.8927 175.128 56.2242 174.962 55.6269 174.63C55.0295 174.289 54.5602 173.815 54.2189 173.208C53.8775 172.592 53.7069 171.881 53.7069 171.075C53.7069 170.278 53.8823 169.572 54.2331 168.956C54.5839 168.339 55.0627 167.865 55.6695 167.533C56.2764 167.201 56.9543 167.036 57.7033 167.036C58.4524 167.036 59.1303 167.201 59.7371 167.533C60.3439 167.865 60.8227 168.339 61.1736 168.956C61.5244 169.572 61.6998 170.278 61.6998 171.075C61.6998 171.871 61.5196 172.577 61.1593 173.194C60.799 173.81 60.306 174.289 59.6802 174.63C59.0639 174.962 58.3813 175.128 57.6322 175.128ZM57.6322 173.72C58.0494 173.72 58.4381 173.62 58.7984 173.421C59.1682 173.222 59.4669 172.924 59.6944 172.525C59.922 172.127 60.0358 171.644 60.0358 171.075C60.0358 170.506 59.9267 170.027 59.7087 169.638C59.4906 169.24 59.2014 168.941 58.8411 168.742C58.4808 168.543 58.0921 168.444 57.6749 168.444C57.2577 168.444 56.869 168.543 56.5087 168.742C56.1578 168.941 55.8781 169.24 55.6695 169.638C55.461 170.027 55.3567 170.506 55.3567 171.075C55.3567 171.919 55.57 172.573 55.9967 173.037C56.4328 173.492 56.978 173.72 57.6322 173.72ZM64.9239 168.316C65.1989 167.955 65.5734 167.652 66.0475 167.405C66.5215 167.159 67.0572 167.036 67.6546 167.036C68.3372 167.036 68.9583 167.206 69.5177 167.548C70.0866 167.879 70.5322 168.349 70.8546 168.956C71.177 169.562 71.3381 170.259 71.3381 171.046C71.3381 171.833 71.177 172.54 70.8546 173.165C70.5322 173.782 70.0866 174.265 69.5177 174.616C68.9583 174.957 68.3372 175.128 67.6546 175.128C67.0572 175.128 66.5263 175.009 66.0617 174.772C65.5971 174.526 65.2178 174.223 64.9239 173.862V178.726H63.3026V167.164H64.9239V168.316ZM69.6884 171.046C69.6884 170.506 69.5746 170.041 69.347 169.652C69.129 169.254 68.835 168.956 68.4652 168.756C68.105 168.548 67.7162 168.444 67.299 168.444C66.8913 168.444 66.5026 168.548 66.1328 168.756C65.7725 168.965 65.4786 169.268 65.251 169.667C65.0329 170.065 64.9239 170.534 64.9239 171.075C64.9239 171.615 65.0329 172.089 65.251 172.497C65.4786 172.895 65.7725 173.199 66.1328 173.407C66.5026 173.616 66.8913 173.72 67.299 173.72C67.7162 173.72 68.105 173.616 68.4652 173.407C68.835 173.189 69.129 172.876 69.347 172.468C69.5746 172.061 69.6884 171.587 69.6884 171.046ZM80.1237 170.89C80.1237 171.184 80.1048 171.449 80.0668 171.686H74.0793C74.1267 172.312 74.359 172.815 74.7762 173.194C75.1933 173.573 75.7053 173.763 76.3122 173.763C77.1845 173.763 77.8008 173.398 78.1611 172.668H79.9104C79.6734 173.388 79.2419 173.981 78.6162 174.445C77.9999 174.9 77.2319 175.128 76.3122 175.128C75.5631 175.128 74.8899 174.962 74.2926 174.63C73.7047 174.289 73.2402 173.815 72.8988 173.208C72.567 172.592 72.401 171.881 72.401 171.075C72.401 170.269 72.5622 169.562 72.8846 168.956C73.2165 168.339 73.6763 167.865 74.2642 167.533C74.8615 167.201 75.5442 167.036 76.3122 167.036C77.0517 167.036 77.7107 167.197 78.2891 167.519C78.8674 167.841 79.3178 168.297 79.6402 168.884C79.9625 169.463 80.1237 170.131 80.1237 170.89ZM78.4313 170.378C78.4218 169.78 78.2085 169.302 77.7913 168.941C77.3741 168.581 76.8573 168.401 76.2411 168.401C75.6816 168.401 75.2028 168.581 74.8046 168.941C74.4064 169.292 74.1693 169.771 74.0935 170.378H78.4313ZM83.3406 168.301C83.5777 167.903 83.8906 167.595 84.2793 167.377C84.6775 167.149 85.1469 167.036 85.6873 167.036V168.714H85.2749C84.6396 168.714 84.156 168.875 83.8242 169.197C83.5018 169.52 83.3406 170.079 83.3406 170.876V175H81.7193V167.164H83.3406V168.301ZM86.6372 171.046C86.6372 170.259 86.7984 169.562 87.1207 168.956C87.4526 168.349 87.8982 167.879 88.4576 167.548C89.0265 167.206 89.6523 167.036 90.335 167.036C90.9513 167.036 91.487 167.159 91.9421 167.405C92.4067 167.642 92.7765 167.941 93.0514 168.301V167.164H94.687V175H93.0514V173.834C92.7765 174.204 92.4019 174.512 91.9279 174.758C91.4538 175.005 90.9133 175.128 90.3065 175.128C89.6333 175.128 89.017 174.957 88.4576 174.616C87.8982 174.265 87.4526 173.782 87.1207 173.165C86.7984 172.54 86.6372 171.833 86.6372 171.046ZM93.0514 171.075C93.0514 170.534 92.9376 170.065 92.7101 169.667C92.492 169.268 92.2028 168.965 91.8425 168.756C91.4822 168.548 91.0935 168.444 90.6763 168.444C90.2591 168.444 89.8704 168.548 89.5101 168.756C89.1498 168.956 88.8559 169.254 88.6283 169.652C88.4102 170.041 88.3012 170.506 88.3012 171.046C88.3012 171.587 88.4102 172.061 88.6283 172.468C88.8559 172.876 89.1498 173.189 89.5101 173.407C89.8799 173.616 90.2686 173.72 90.6763 173.72C91.0935 173.72 91.4822 173.616 91.8425 173.407C92.2028 173.199 92.492 172.895 92.7101 172.497C92.9376 172.089 93.0514 171.615 93.0514 171.075ZM99.661 175.128C99.0447 175.128 98.49 175.019 97.997 174.801C97.5134 174.573 97.1294 174.27 96.845 173.891C96.5605 173.502 96.4088 173.071 96.3899 172.596H98.0681C98.0966 172.928 98.253 173.208 98.5374 173.436C98.8314 173.654 99.1964 173.763 99.6326 173.763C100.088 173.763 100.438 173.677 100.685 173.507C100.941 173.327 101.069 173.099 101.069 172.824C101.069 172.53 100.927 172.312 100.642 172.17C100.367 172.028 99.9265 171.871 99.3197 171.7C98.7318 171.539 98.253 171.383 97.8832 171.231C97.5134 171.079 97.1911 170.847 96.9161 170.534C96.6506 170.221 96.5179 169.809 96.5179 169.297C96.5179 168.88 96.6411 168.5 96.8877 168.159C97.1342 167.808 97.485 167.533 97.9401 167.334C98.4047 167.135 98.9357 167.036 99.533 167.036C100.424 167.036 101.14 167.263 101.681 167.718C102.23 168.164 102.524 168.775 102.562 169.553H100.941C100.913 169.202 100.77 168.922 100.514 168.714C100.258 168.505 99.9123 168.401 99.4761 168.401C99.0494 168.401 98.7223 168.481 98.4948 168.643C98.2672 168.804 98.1534 169.017 98.1534 169.283C98.1534 169.491 98.2293 169.667 98.381 169.809C98.5327 169.951 98.7176 170.065 98.9357 170.15C99.1537 170.226 99.4761 170.326 99.9028 170.449C100.472 170.601 100.936 170.757 101.297 170.918C101.666 171.07 101.984 171.297 102.249 171.601C102.515 171.904 102.652 172.307 102.662 172.81C102.662 173.255 102.539 173.654 102.292 174.004C102.046 174.355 101.695 174.63 101.24 174.829C100.794 175.028 100.268 175.128 99.661 175.128ZM105.239 166.125C104.945 166.125 104.698 166.026 104.499 165.827C104.3 165.628 104.2 165.381 104.2 165.087C104.2 164.793 104.3 164.547 104.499 164.348C104.698 164.148 104.945 164.049 105.239 164.049C105.523 164.049 105.765 164.148 105.964 164.348C106.163 164.547 106.263 164.793 106.263 165.087C106.263 165.381 106.163 165.628 105.964 165.827C105.765 166.026 105.523 166.125 105.239 166.125ZM106.035 167.164V175H104.414V167.164H106.035ZM119.979 175H118.358L113.48 167.619V175H111.858V165.101H113.48L118.358 172.468V165.101H119.979V175ZM121.568 171.046C121.568 170.259 121.729 169.562 122.051 168.956C122.383 168.349 122.829 167.879 123.388 167.548C123.957 167.206 124.583 167.036 125.266 167.036C125.882 167.036 126.418 167.159 126.873 167.405C127.337 167.642 127.707 167.941 127.982 168.301V167.164H129.618V175H127.982V173.834C127.707 174.204 127.333 174.512 126.859 174.758C126.384 175.005 125.844 175.128 125.237 175.128C124.564 175.128 123.948 174.957 123.388 174.616C122.829 174.265 122.383 173.782 122.051 173.165C121.729 172.54 121.568 171.833 121.568 171.046ZM127.982 171.075C127.982 170.534 127.868 170.065 127.641 169.667C127.423 169.268 127.133 168.965 126.773 168.756C126.413 168.548 126.024 168.444 125.607 168.444C125.19 168.444 124.801 168.548 124.441 168.756C124.08 168.956 123.787 169.254 123.559 169.652C123.341 170.041 123.232 170.506 123.232 171.046C123.232 171.587 123.341 172.061 123.559 172.468C123.787 172.876 124.08 173.189 124.441 173.407C124.811 173.616 125.199 173.72 125.607 173.72C126.024 173.72 126.413 173.616 126.773 173.407C127.133 173.199 127.423 172.895 127.641 172.497C127.868 172.089 127.982 171.615 127.982 171.075ZM134.592 175.128C133.975 175.128 133.421 175.019 132.928 174.801C132.444 174.573 132.06 174.27 131.776 173.891C131.491 173.502 131.339 173.071 131.321 172.596H132.999C133.027 172.928 133.184 173.208 133.468 173.436C133.762 173.654 134.127 173.763 134.563 173.763C135.018 173.763 135.369 173.677 135.616 173.507C135.872 173.327 136 173.099 136 172.824C136 172.53 135.857 172.312 135.573 172.17C135.298 172.028 134.857 171.871 134.25 171.7C133.662 171.539 133.184 171.383 132.814 171.231C132.444 171.079 132.122 170.847 131.847 170.534C131.581 170.221 131.449 169.809 131.449 169.297C131.449 168.88 131.572 168.5 131.818 168.159C132.065 167.808 132.416 167.533 132.871 167.334C133.335 167.135 133.866 167.036 134.464 167.036C135.355 167.036 136.071 167.263 136.611 167.718C137.161 168.164 137.455 168.775 137.493 169.553H135.872C135.843 169.202 135.701 168.922 135.445 168.714C135.189 168.505 134.843 168.401 134.407 168.401C133.98 168.401 133.653 168.481 133.425 168.643C133.198 168.804 133.084 169.017 133.084 169.283C133.084 169.491 133.16 169.667 133.312 169.809C133.463 169.951 133.648 170.065 133.866 170.15C134.084 170.226 134.407 170.326 134.833 170.449C135.402 170.601 135.867 170.757 136.227 170.918C136.597 171.07 136.915 171.297 137.18 171.601C137.446 171.904 137.583 172.307 137.593 172.81C137.593 173.255 137.469 173.654 137.223 174.004C136.976 174.355 136.625 174.63 136.17 174.829C135.725 175.028 135.198 175.128 134.592 175.128ZM140.169 166.125C139.875 166.125 139.629 166.026 139.43 165.827C139.231 165.628 139.131 165.381 139.131 165.087C139.131 164.793 139.231 164.547 139.43 164.348C139.629 164.148 139.875 164.049 140.169 164.049C140.454 164.049 140.696 164.148 140.895 164.348C141.094 164.547 141.193 164.793 141.193 165.087C141.193 165.381 141.094 165.628 140.895 165.827C140.696 166.026 140.454 166.125 140.169 166.125ZM140.966 167.164V175H139.344V167.164H140.966ZM146.494 175.128C145.754 175.128 145.086 174.962 144.488 174.63C143.891 174.289 143.422 173.815 143.08 173.208C142.739 172.592 142.568 171.881 142.568 171.075C142.568 170.278 142.744 169.572 143.094 168.956C143.445 168.339 143.924 167.865 144.531 167.533C145.138 167.201 145.816 167.036 146.565 167.036C147.314 167.036 147.992 167.201 148.598 167.533C149.205 167.865 149.684 168.339 150.035 168.956C150.386 169.572 150.561 170.278 150.561 171.075C150.561 171.871 150.381 172.577 150.021 173.194C149.66 173.81 149.167 174.289 148.542 174.63C147.925 174.962 147.243 175.128 146.494 175.128ZM146.494 173.72C146.911 173.72 147.299 173.62 147.66 173.421C148.03 173.222 148.328 172.924 148.556 172.525C148.783 172.127 148.897 171.644 148.897 171.075C148.897 170.506 148.788 170.027 148.57 169.638C148.352 169.24 148.063 168.941 147.702 168.742C147.342 168.543 146.953 168.444 146.536 168.444C146.119 168.444 145.73 168.543 145.37 168.742C145.019 168.941 144.739 169.24 144.531 169.638C144.322 170.027 144.218 170.506 144.218 171.075C144.218 171.919 144.431 172.573 144.858 173.037C145.294 173.492 145.839 173.72 146.494 173.72ZM156.118 167.036C156.734 167.036 157.284 167.164 157.767 167.42C158.261 167.676 158.645 168.055 158.919 168.557C159.194 169.06 159.332 169.667 159.332 170.378V175H157.725V170.62C157.725 169.918 157.549 169.382 157.199 169.012C156.848 168.633 156.369 168.444 155.762 168.444C155.155 168.444 154.672 168.633 154.311 169.012C153.961 169.382 153.785 169.918 153.785 170.62V175H152.164V167.164H153.785V168.06C154.051 167.737 154.387 167.486 154.795 167.306C155.212 167.126 155.653 167.036 156.118 167.036ZM160.86 171.046C160.86 170.259 161.021 169.562 161.343 168.956C161.675 168.349 162.121 167.879 162.68 167.548C163.249 167.206 163.875 167.036 164.557 167.036C165.174 167.036 165.709 167.159 166.165 167.405C166.629 167.642 166.999 167.941 167.274 168.301V167.164H168.909V175H167.274V173.834C166.999 174.204 166.624 174.512 166.15 174.758C165.676 175.005 165.136 175.128 164.529 175.128C163.856 175.128 163.239 174.957 162.68 174.616C162.121 174.265 161.675 173.782 161.343 173.165C161.021 172.54 160.86 171.833 160.86 171.046ZM167.274 171.075C167.274 170.534 167.16 170.065 166.933 169.667C166.714 169.268 166.425 168.965 166.065 168.756C165.705 168.548 165.316 168.444 164.899 168.444C164.482 168.444 164.093 168.548 163.732 168.756C163.372 168.956 163.078 169.254 162.851 169.652C162.633 170.041 162.524 170.506 162.524 171.046C162.524 171.587 162.633 172.061 162.851 172.468C163.078 172.876 163.372 173.189 163.732 173.407C164.102 173.616 164.491 173.72 164.899 173.72C165.316 173.72 165.705 173.616 166.065 173.407C166.425 173.199 166.714 172.895 166.933 172.497C167.16 172.089 167.274 171.615 167.274 171.075ZM172.66 164.476V175H171.039V164.476H172.66ZM184.869 165.116V166.438H182.238V175H180.617V166.438H177.971V165.116H184.869ZM193.693 170.89C193.693 171.184 193.674 171.449 193.637 171.686H187.649C187.696 172.312 187.929 172.815 188.346 173.194C188.763 173.573 189.275 173.763 189.882 173.763C190.754 173.763 191.37 173.398 191.731 172.668H193.48C193.243 173.388 192.812 173.981 192.186 174.445C191.57 174.9 190.802 175.128 189.882 175.128C189.133 175.128 188.46 174.962 187.862 174.63C187.274 174.289 186.81 173.815 186.469 173.208C186.137 172.592 185.971 171.881 185.971 171.075C185.971 170.269 186.132 169.562 186.454 168.956C186.786 168.339 187.246 167.865 187.834 167.533C188.431 167.201 189.114 167.036 189.882 167.036C190.621 167.036 191.28 167.197 191.859 167.519C192.437 167.841 192.888 168.297 193.21 168.884C193.532 169.463 193.693 170.131 193.693 170.89ZM192.001 170.378C191.992 169.78 191.778 169.302 191.361 168.941C190.944 168.581 190.427 168.401 189.811 168.401C189.251 168.401 188.773 168.581 188.374 168.941C187.976 169.292 187.739 169.771 187.663 170.378H192.001ZM196.91 168.301C197.147 167.903 197.46 167.595 197.849 167.377C198.247 167.149 198.717 167.036 199.257 167.036V168.714H198.845C198.209 168.714 197.726 168.875 197.394 169.197C197.072 169.52 196.91 170.079 196.91 170.876V175H195.289V167.164H196.91V168.301ZM202.369 168.316C202.644 167.955 203.018 167.652 203.492 167.405C203.966 167.159 204.502 167.036 205.099 167.036C205.782 167.036 206.403 167.206 206.963 167.548C207.531 167.879 207.977 168.349 208.299 168.956C208.622 169.562 208.783 170.259 208.783 171.046C208.783 171.833 208.622 172.54 208.299 173.165C207.977 173.782 207.531 174.265 206.963 174.616C206.403 174.957 205.782 175.128 205.099 175.128C204.502 175.128 203.971 175.009 203.507 174.772C203.042 174.526 202.663 174.223 202.369 173.862V178.726H200.747V167.164H202.369V168.316ZM207.133 171.046C207.133 170.506 207.019 170.041 206.792 169.652C206.574 169.254 206.28 168.956 205.91 168.756C205.55 168.548 205.161 168.444 204.744 168.444C204.336 168.444 203.947 168.548 203.578 168.756C203.217 168.965 202.923 169.268 202.696 169.667C202.478 170.065 202.369 170.534 202.369 171.075C202.369 171.615 202.478 172.089 202.696 172.497C202.923 172.895 203.217 173.199 203.578 173.407C203.947 173.616 204.336 173.72 204.744 173.72C205.161 173.72 205.55 173.616 205.91 173.407C206.28 173.189 206.574 172.876 206.792 172.468C207.019 172.061 207.133 171.587 207.133 171.046ZM209.846 171.046C209.846 170.259 210.007 169.562 210.329 168.956C210.661 168.349 211.107 167.879 211.666 167.548C212.235 167.206 212.861 167.036 213.544 167.036C214.16 167.036 214.696 167.159 215.151 167.405C215.615 167.642 215.985 167.941 216.26 168.301V167.164H217.896V175H216.26V173.834C215.985 174.204 215.611 174.512 215.137 174.758C214.662 175.005 214.122 175.128 213.515 175.128C212.842 175.128 212.226 174.957 211.666 174.616C211.107 174.265 210.661 173.782 210.329 173.165C210.007 172.54 209.846 171.833 209.846 171.046ZM216.26 171.075C216.26 170.534 216.146 170.065 215.919 169.667C215.701 169.268 215.412 168.965 215.051 168.756C214.691 168.548 214.302 168.444 213.885 168.444C213.468 168.444 213.079 168.548 212.719 168.756C212.358 168.956 212.065 169.254 211.837 169.652C211.619 170.041 211.51 170.506 211.51 171.046C211.51 171.587 211.619 172.061 211.837 172.468C212.065 172.876 212.358 173.189 212.719 173.407C213.089 173.616 213.477 173.72 213.885 173.72C214.302 173.72 214.691 173.616 215.051 173.407C215.412 173.199 215.701 172.895 215.919 172.497C216.146 172.089 216.26 171.615 216.26 171.075ZM219.485 171.046C219.485 170.259 219.646 169.562 219.968 168.956C220.3 168.349 220.746 167.879 221.305 167.548C221.874 167.206 222.505 167.036 223.197 167.036C223.709 167.036 224.211 167.149 224.704 167.377C225.207 167.595 225.605 167.889 225.899 168.259V164.476H227.535V175H225.899V173.82C225.634 174.199 225.264 174.512 224.79 174.758C224.325 175.005 223.789 175.128 223.183 175.128C222.5 175.128 221.874 174.957 221.305 174.616C220.746 174.265 220.3 173.782 219.968 173.165C219.646 172.54 219.485 171.833 219.485 171.046ZM225.899 171.075C225.899 170.534 225.785 170.065 225.558 169.667C225.34 169.268 225.05 168.965 224.69 168.756C224.33 168.548 223.941 168.444 223.524 168.444C223.107 168.444 222.718 168.548 222.358 168.756C221.997 168.956 221.703 169.254 221.476 169.652C221.258 170.041 221.149 170.506 221.149 171.046C221.149 171.587 221.258 172.061 221.476 172.468C221.703 172.876 221.997 173.189 222.358 173.407C222.727 173.616 223.116 173.72 223.524 173.72C223.941 173.72 224.33 173.616 224.69 173.407C225.05 173.199 225.34 172.895 225.558 172.497C225.785 172.089 225.899 171.615 225.899 171.075ZM236.761 167.164V175H235.14V174.076C234.884 174.398 234.547 174.654 234.13 174.844C233.722 175.024 233.286 175.114 232.821 175.114C232.205 175.114 231.65 174.986 231.157 174.73C230.674 174.474 230.29 174.095 230.005 173.592C229.73 173.089 229.593 172.483 229.593 171.772V167.164H231.2V171.53C231.2 172.231 231.376 172.772 231.726 173.151C232.077 173.521 232.556 173.706 233.163 173.706C233.77 173.706 234.248 173.521 234.599 173.151C234.96 172.772 235.14 172.231 235.14 171.53V167.164H236.761Z" fill="#92A7AD"/>
</svg>
