<svg width="15" height="16" viewBox="0 0 15 16" fill="none" xmlns="http://www.w3.org/2000/svg">
<g clip-path="url(#clip0_73_304)">
<path d="M7.50049 14.2471C4.04861 14.2471 1.25049 11.4489 1.25049 7.99707C1.25049 4.5452 4.04861 1.74707 7.50049 1.74707C8.47086 1.74659 9.42798 1.97228 10.2959 2.40624C11.1638 2.8402 11.9187 3.47049 12.5005 4.24707H10.8067C10.085 3.61067 9.19497 3.19604 8.24344 3.05295C7.2919 2.90985 6.31928 3.04436 5.44229 3.44033C4.56531 3.8363 3.82121 4.47692 3.29928 5.28531C2.77736 6.0937 2.49978 7.03553 2.49986 7.99776C2.49994 8.96 2.77768 9.90178 3.29973 10.7101C3.82179 11.5184 4.566 12.1589 5.44305 12.5547C6.32011 12.9505 7.29275 13.0849 8.24426 12.9416C9.19577 12.7984 10.0857 12.3836 10.8074 11.7471H12.5011C11.9192 12.5237 11.1643 13.1541 10.2962 13.588C9.42821 14.022 8.47096 14.2477 7.50049 14.2471ZM11.8755 10.4971V8.62207H6.87549V7.37207H11.8755V5.49707L15.0005 7.99707L11.8755 10.4971Z" fill="white"/>
</g>
<defs>
<clipPath id="clip0_73_304">
<rect width="15" height="15" fill="white" transform="translate(0 0.496948)"/>
</clipPath>
</defs>
</svg>
